<?xml version="1.0" encoding="utf-8"?><!-- Uploaded to: SVG Repo, www.svgrepo.com, Generator: SVG Repo Mixer Tools -->
<svg width="800px" height="800px" viewBox="0 -0.5 25 25" fill="none" xmlns="http://www.w3.org/2000/svg">
<path fill-rule="evenodd" clip-rule="evenodd" d="M15.8227 8.57733H4.64368L10.2327 13.5773L15.8227 8.57733Z" stroke="#000000" stroke-width="1.5" stroke-linecap="round" stroke-linejoin="round"/>
<path d="M16.892 10.1134C16.4778 10.1132 16.1419 10.4489 16.1418 10.8631C16.1416 11.2773 16.4773 11.6132 16.8915 11.6134L16.892 10.1134ZM18.7815 10.2854L18.3633 9.66278L18.3631 9.66295L18.7815 10.2854ZM20.0345 8.74635L20.7279 9.03218L20.7281 9.03169L20.0345 8.74635ZM19.297 5.00635L18.7652 5.53523L18.7664 5.53644L19.297 5.00635ZM16.5607 4.01645L16.6349 4.76278L16.6349 4.76278L16.5607 4.01645ZM14.0621 5.52635L13.4388 5.10924L13.4374 5.11131L14.0621 5.52635ZM12.857 6.43911C12.7591 6.8416 13.006 7.24722 13.4085 7.34511C13.811 7.44299 14.2166 7.19607 14.3145 6.79359L12.857 6.43911ZM10.2327 19.2564C9.81849 19.2564 9.48271 19.5921 9.48271 20.0064C9.48271 20.4206 9.81849 20.7564 10.2327 20.7564V19.2564ZM14.425 20.7564C14.8392 20.7564 15.175 20.4206 15.175 20.0064C15.175 19.5921 14.8392 19.2564 14.425 19.2564V20.7564ZM9.48271 20.0064C9.48271 20.4206 9.8185 20.7564 10.2327 20.7564C10.6469 20.7564 10.9827 20.4206 10.9827 20.0064H9.48271ZM10.9827 13.5774C10.9827 13.1631 10.6469 12.8274 10.2327 12.8274C9.8185 12.8274 9.48271 13.1631 9.48271 13.5774H10.9827ZM10.2327 20.7564C10.6469 20.7564 10.9827 20.4206 10.9827 20.0064C10.9827 19.5921 10.6469 19.2564 10.2327 19.2564V20.7564ZM6.04144 19.2564C5.62723 19.2564 5.29144 19.5921 5.29144 20.0064C5.29144 20.4206 5.62723 20.7564 6.04144 20.7564V19.2564ZM16.8915 11.6134C17.7134 11.6136 18.516 11.3677 19.2 10.9078L18.3631 9.66295C17.9248 9.95762 17.4134 10.1135 16.892 10.1134L16.8915 11.6134ZM19.1997 10.9079C19.882 10.4496 20.413 9.79605 20.7279 9.03218L19.3411 8.46052C19.1377 8.95401 18.7964 9.37182 18.3633 9.66278L19.1997 10.9079ZM20.7281 9.03169C21.3699 7.47152 21.0167 5.66646 19.8276 4.47626L18.7664 5.53644C19.5234 6.29409 19.7549 7.45459 19.3409 8.46101L20.7281 9.03169ZM19.8288 4.47747C18.948 3.59183 17.7243 3.14718 16.4866 3.27012L16.6349 4.76278C17.4181 4.68498 18.1984 4.96532 18.7652 5.53523L19.8288 4.47747ZM16.4866 3.27012C15.2492 3.39303 14.1345 4.06959 13.4388 5.10924L14.6854 5.94346C15.1361 5.26989 15.8514 4.84061 16.6349 4.76278L16.4866 3.27012ZM13.4374 5.11131C13.1684 5.51611 12.9721 5.96568 12.857 6.43911L14.3145 6.79359C14.3887 6.4886 14.5149 6.20012 14.6868 5.94139L13.4374 5.11131ZM10.2327 20.7564H14.425V19.2564H10.2327V20.7564ZM10.9827 20.0064V13.5774H9.48271V20.0064H10.9827ZM10.2327 19.2564H6.04144V20.7564H10.2327V19.2564Z" fill="#000000"/>
</svg>